<?xml version="1.0" encoding="UTF-8"?>
<svg version="1.1" xmlns="http://www.w3.org/2000/svg" width="986" height="432">
<path d="M0 0 C325.38 0 650.76 0 986 0 C986 142.56 986 285.12 986 432 C660.62 432 335.24 432 0 432 C0 289.44 0 146.88 0 0 Z " fill="#FBFBFB" transform="translate(0,0)"/>
<path d="M0 0 C3.96880972 0.73155128 6.12921819 3.23611956 8.87890625 5.99609375 C10.01957991 7.09770436 11.16283646 8.19664645 12.30859375 9.29296875 C12.87416992 9.83630859 13.43974609 10.37964844 14.02246094 10.93945312 C17.70525789 14.37443168 21.69871329 17.43172443 25.69140625 20.49609375 C25.66820312 19.21992187 25.645 17.94375 25.62109375 16.62890625 C25.60233796 14.95964125 25.58413756 13.29036995 25.56640625 11.62109375 C25.54964844 10.77933594 25.53289062 9.93757813 25.515625 9.0703125 C25.50917969 8.26464844 25.50273438 7.45898438 25.49609375 6.62890625 C25.48562012 5.88527832 25.47514648 5.14165039 25.46435547 4.37548828 C25.69140625 2.49609375 25.69140625 2.49609375 27.69140625 0.49609375 C32.10984174 0.09702985 36.54260464 0.16706018 40.97705078 0.18041992 C43.18311859 0.18358187 45.38784794 0.16011799 47.59375 0.13476562 C48.99088372 0.13249287 50.38802106 0.13178903 51.78515625 0.1328125 C53.06068359 0.12983154 54.33621094 0.12685059 55.65039062 0.1237793 C57.15569336 0.30807495 57.15569336 0.30807495 58.69140625 0.49609375 C60.84979022 3.7336697 60.9237396 4.48162645 60.83569336 8.19189453 C60.81224098 9.61950607 60.81224098 9.61950607 60.78831482 11.07595825 C60.76535843 12.10405609 60.74240204 13.13215393 60.71875 14.19140625 C60.70493682 16.37368227 60.69396013 18.55597774 60.68554688 20.73828125 C60.66520653 24.17604462 60.62917907 27.61006143 60.54418945 31.046875 C59.51141722 44.16243392 59.51141722 44.16243392 64.00048828 55.86425781 C66.79006299 58.13164379 69.52006295 59.81971307 72.69140625 61.49609375 C74.54272461 63.02783203 74.54272461 63.02783203 76.00390625 64.46484375 C80.72085503 68.90755133 85.47533226 73.21556841 90.50390625 77.30859375 C91.84001953 78.39720703 91.84001953 78.39720703 93.203125 79.5078125 C94.74907178 80.74311377 96.31164319 81.9582526 97.8984375 83.140625 C101.43740061 85.87232972 102.53341431 86.84306042 103.62890625 91.37109375 C103.65984375 92.91796875 103.65984375 92.91796875 103.69140625 94.49609375 C101.453125 95.671875 101.453125 95.671875 98.69140625 96.49609375 C96.5859375 95.4765625 96.5859375 95.4765625 94.50390625 93.68359375 C93.33408203 92.69552734 93.33408203 92.69552734 92.140625 91.6875 C91.33238281 90.96433594 90.52414062 90.24117188 89.69140625 89.49609375 C88.89347656 88.78324219 88.09554687 88.07039063 87.2734375 87.3359375 C85.60556944 85.83246979 83.94297055 84.32314015 82.28515625 82.80859375 C79.68920545 80.49413159 77.02585442 78.30110952 74.31640625 76.12109375 C68.19854264 71.16770987 62.41013987 65.9034923 56.69140625 60.49609375 C55.8202417 59.83552979 54.94907715 59.17496582 54.05151367 58.49438477 C50.5940574 54.10201687 51.06008088 50.37956571 51.203125 44.9453125 C51.21373711 43.42439751 51.21373711 43.42439751 51.2245636 41.87275696 C51.25249613 38.64227745 51.31523463 35.41354714 51.37890625 32.18359375 C51.4039905 29.99025945 51.42680344 27.79689791 51.44726562 25.60351562 C51.5023195 20.23370361 51.58858627 14.86519499 51.69140625 9.49609375 C46.08140625 9.49609375 40.47140625 9.49609375 34.69140625 9.49609375 C34.71460938 11.20539063 34.7378125 12.9146875 34.76171875 14.67578125 C34.78047309 16.90754773 34.79867365 19.13931892 34.81640625 21.37109375 C34.83316406 22.49902344 34.84992188 23.62695312 34.8671875 24.7890625 C34.87363281 25.86542969 34.88007812 26.94179687 34.88671875 28.05078125 C34.89719238 29.04577637 34.90766602 30.04077148 34.91845703 31.06591797 C34.69140625 33.49609375 34.69140625 33.49609375 32.69140625 35.49609375 C29.42288613 36.01534026 28.10980878 35.79811469 25.40234375 33.84375 C24.63148438 33.08964844 23.860625 32.33554688 23.06640625 31.55859375 C17.81892902 26.58523846 12.30939242 22.04147536 6.69140625 17.49609375 C4.68461704 15.83730267 2.68713296 14.1681891 0.69140625 12.49609375 C-4.00536676 13.94325444 -6.98629368 16.70672067 -10.43359375 20.05859375 C-14.46747999 23.88664029 -18.52707108 27.57833175 -22.87109375 31.05859375 C-26.82353661 34.23087373 -30.59995534 37.54449557 -34.30859375 40.99609375 C-38.89616814 45.26530154 -43.64302379 49.25368114 -48.52734375 53.18359375 C-51.54878563 55.69580385 -54.43301148 58.32010202 -57.30859375 60.99609375 C-61.89619488 65.26527527 -66.64302103 69.25367892 -71.52734375 73.18359375 C-74.54883964 75.69584876 -77.43239168 78.32070759 -80.30859375 80.99609375 C-96.49060175 95.99443732 -96.49060175 95.99443732 -101.30859375 96.49609375 C-103.12109375 95.37109375 -103.12109375 95.37109375 -104.30859375 93.49609375 C-104.26330766 89.80851232 -103.06064076 87.98249921 -100.53515625 85.48046875 C-99.3456657 84.39018621 -98.14441302 83.3126398 -96.93359375 82.24609375 C-95.98347412 81.38685303 -95.98347412 81.38685303 -95.01416016 80.51025391 C-90.47094953 76.43360002 -85.78446998 72.55302692 -81.01953125 68.73828125 C-78.01954844 66.25702746 -75.15707345 63.64743419 -72.30859375 60.99609375 C-67.72104609 56.7268597 -62.97416095 52.73850414 -58.08984375 48.80859375 C-55.06840187 46.29638365 -52.18417602 43.67208548 -49.30859375 40.99609375 C-44.72099262 36.72691223 -39.97416647 32.73850858 -35.08984375 28.80859375 C-32.06839447 26.29637749 -29.18426081 23.67200391 -26.30859375 20.99609375 C-21.61840938 16.63381999 -16.78539156 12.515032 -11.78125 8.51171875 C-9.58538082 6.72172112 -7.51275767 4.85558545 -5.43359375 2.93359375 C-2.30859375 0.49609375 -2.30859375 0.49609375 0 0 Z " fill="#1B1B1B" transform="translate(489.30859375,93.50390625)"/>
<path d="M0 0 C2.24023928 1.51166589 4.02859209 3.12475833 6 5 C6.309375 4.175 6.61875 3.35 6.9375 2.5 C9 0 9 0 11.203125 -0.33203125 C13.48617399 -0.31408275 15.72737696 -0.2143984 18 0 C19.19506786 3.58520358 19.16218992 6.86534311 19.16796875 10.59765625 C19.17296135 11.72100624 19.17296135 11.72100624 19.17805481 12.86705017 C19.1831176 14.45489896 19.18546333 16.04275838 19.18530273 17.63061523 C19.18747002 20.02931985 19.20557858 22.42754979 19.22460938 24.82617188 C19.30574002 46.28382807 19.30574002 46.28382807 13.5625 53.53125 C7.78206718 58.96485685 0.50892064 60.29354297 -7.13671875 60.22265625 C-11.84363825 59.85663386 -16.04133548 58.65220681 -19.72265625 55.546875 C-21 54 -21 54 -20.9375 51.5625 C-19.8388558 48.55953918 -18.39003469 47.08164312 -16 45 C-14.824375 45.495 -14.824375 45.495 -13.625 46 C-9.00490833 47.27450805 -4.76029218 47.66839719 0 47 C2.71648577 45.4548843 2.71648577 45.4548843 4 43 C4 41.68 4 40.36 4 39 C3.401875 39.66 2.80375 40.32 2.1875 41 C-2.48321759 43.93064633 -6.62427314 43.62730048 -12 43 C-17.83497248 41.20462385 -21.47253184 36.81990139 -25 32 C-27.04694001 25.85917997 -27.26441611 17.52567479 -25.05859375 11.375 C-21.23844303 5.05199191 -16.28875315 1.58739937 -9.26953125 -0.51953125 C-5.8125781 -1.25138192 -3.37709297 -1.01949976 0 0 Z " fill="#191919" transform="translate(601,249)"/>
<path d="M0 0 C3.125 2.125 3.125 2.125 5 4 C5.78375 3.360625 6.5675 2.72125 7.375 2.0625 C11.87533793 -1.47347981 15.30565016 -1.46320342 20.9453125 -1.40234375 C24.8348816 -0.89003478 26.75502109 0.3023094 29.59765625 2.90625 C34.90430206 10.82926436 34.36379121 18.76957325 34.1875 28 C34.17242476 29.36066226 34.15874138 30.72134069 34.14648438 32.08203125 C34.11130983 35.38843843 34.06208288 38.69400684 34 42 C31.49860398 43.25069801 29.72607309 43.13302467 26.9375 43.125 C25.58978516 43.12886719 25.58978516 43.12886719 24.21484375 43.1328125 C22 43 22 43 21 42 C20.87818785 39.95163251 20.82026019 37.89940533 20.7890625 35.84765625 C20.76070312 34.59662109 20.73234375 33.34558594 20.703125 32.05664062 C20.65112081 29.39792647 20.60682609 26.73905013 20.5703125 24.08007812 C20.539375 22.82775391 20.5084375 21.57542969 20.4765625 20.28515625 C20.4468335 18.55084351 20.4468335 18.55084351 20.41650391 16.78149414 C20.27905762 15.86360107 20.14161133 14.94570801 20 14 C16.76746204 11.84497469 15.74849077 11.53143865 12 12 C10.25274823 13.08901135 10.25274823 13.08901135 9 15 C8.50960014 17.8851115 8.50960014 17.8851115 8.5234375 21.1640625 C8.4925 22.36804688 8.4615625 23.57203125 8.4296875 24.8125 C8.41164063 26.070625 8.39359375 27.32875 8.375 28.625 C8.32424092 31.11727061 8.26976374 33.60946926 8.2109375 36.1015625 C8.18459229 37.76179443 8.18459229 37.76179443 8.15771484 39.45556641 C8 42 8 42 7 43 C5.14712498 43.07226502 3.29166122 43.0838122 1.4375 43.0625 C0.42558594 43.05347656 -0.58632813 43.04445313 -1.62890625 43.03515625 C-2.80259766 43.01775391 -2.80259766 43.01775391 -4 43 C-5.36402394 40.27195213 -5.18021962 38.01892198 -5.24609375 34.96875 C-5.27896484 33.76605469 -5.31183594 32.56335938 -5.34570312 31.32421875 C-5.40689886 28.77483031 -5.46419093 26.22534517 -5.51757812 23.67578125 C-5.55173828 22.47308594 -5.58589844 21.27039063 -5.62109375 20.03125 C-5.6461499 18.92330078 -5.67120605 17.81535156 -5.69702148 16.67382812 C-5.73594623 13.84872321 -5.73594623 13.84872321 -8 12 C-10.95769177 11.49989476 -10.95769177 11.49989476 -14 12 C-17.15963819 15.12946239 -17.39554177 17.70177257 -17.4765625 22.04296875 C-17.52296875 23.77643555 -17.52296875 23.77643555 -17.5703125 25.54492188 C-17.58835937 26.74697266 -17.60640625 27.94902344 -17.625 29.1875 C-17.67575751 31.57690963 -17.73023436 33.9662442 -17.7890625 36.35546875 C-17.80662598 37.41403076 -17.82418945 38.47259277 -17.84228516 39.56323242 C-18 42 -18 42 -19 43 C-20.85287502 43.07226502 -22.70833878 43.0838122 -24.5625 43.0625 C-25.57441406 43.05347656 -26.58632813 43.04445313 -27.62890625 43.03515625 C-28.80259766 43.01775391 -28.80259766 43.01775391 -30 43 C-31.71376612 39.57246776 -31.1414536 35.64203256 -31.1328125 31.87109375 C-31.13376923 30.96625748 -31.13472595 30.0614212 -31.13571167 29.12916565 C-31.13639273 27.21509736 -31.13454361 25.30102676 -31.13037109 23.38696289 C-31.12501561 20.44607396 -31.13032178 17.50533733 -31.13671875 14.56445312 C-31.13605808 12.70833299 -31.13477714 10.85221296 -31.1328125 8.99609375 C-31.13483673 8.11070419 -31.13686096 7.22531464 -31.13894653 6.31309509 C-31.11495408 0.11495408 -31.11495408 0.11495408 -30 -1 C-28.48071962 -1.07179964 -26.95832518 -1.08392007 -25.4375 -1.0625 C-24.61121094 -1.05347656 -23.78492188 -1.04445312 -22.93359375 -1.03515625 C-22.29550781 -1.02355469 -21.65742187 -1.01195312 -21 -1 C-20.34 0.65 -19.68 2.3 -19 4 C-18.071875 3.195625 -17.14375 2.39125 -16.1875 1.5625 C-10.92507558 -2.99826783 -6.31030379 -1.9192166 0 0 Z " fill="#151515" transform="translate(851,250)"/>
<path d="M0 0 C2.62311625 1.41658047 3.97555141 2.75061268 6 5 C6.309375 4.175 6.61875 3.35 6.9375 2.5 C9 0 9 0 11.203125 -0.33203125 C13.48617399 -0.31408275 15.72737696 -0.2143984 18 0 C19.71802382 3.43604765 19.1196618 7.38438896 19.09765625 11.1640625 C19.0962413 12.07127045 19.09482635 12.97847839 19.09336853 13.91317749 C19.08776096 16.81715155 19.07520718 19.72104915 19.0625 22.625 C19.05748598 24.59114472 19.0529229 26.55729065 19.04882812 28.5234375 C19.03778906 33.3489879 19.02051935 38.17448097 19 43 C16.59454362 44.20272819 15.05003047 44.10071472 12.375 44.0625 C11.14910156 44.04896484 11.14910156 44.04896484 9.8984375 44.03515625 C9.27195312 44.02355469 8.64546875 44.01195312 8 44 C7.34 42.35 6.68 40.7 6 39 C5.34 39 4.68 39 4 39 C4 39.66 4 40.32 4 41 C-0.01065102 44.59575609 -4.2319751 44.44309003 -9.34765625 44.28515625 C-15.45417782 43.62863773 -19.0504142 40.48331361 -23 36 C-27.24699551 30.18004318 -28.45706872 24.44943961 -27.4375 17.4375 C-25.86404883 10.3274675 -23.05538927 6.04134465 -16.9375 2.0625 C-11.46921024 -0.68993348 -5.99246559 -1.10499366 0 0 Z " fill="#191919" transform="translate(548,249)"/>
<path d="M0 0 C2.5625 2.125 2.5625 2.125 4 4 C4.309375 3.175 4.61875 2.35 4.9375 1.5 C7 -1 7 -1 9.17016602 -1.24414062 C10.38724243 -1.20063477 10.38724243 -1.20063477 11.62890625 -1.15625 C12.85395874 -1.12241211 12.85395874 -1.12241211 14.10375977 -1.08789062 C14.72951904 -1.05888672 15.35527832 -1.02988281 16 -1 C16.02464513 5.1055471 16.04283371 11.21106551 16.05493164 17.31665039 C16.05997288 19.39543156 16.06680574 21.47420916 16.07543945 23.55297852 C16.08751422 26.53402586 16.09323024 29.51502649 16.09765625 32.49609375 C16.10281754 33.43150497 16.10797882 34.3669162 16.11329651 35.33067322 C16.11337204 36.19149002 16.11344757 37.05230682 16.11352539 37.93920898 C16.115746 38.70087875 16.11796661 39.46254852 16.12025452 40.24729919 C16 42 16 42 15 43 C13.31391034 43.07205511 11.62499341 43.08386068 9.9375 43.0625 C9.01839844 43.05347656 8.09929688 43.04445313 7.15234375 43.03515625 C6.44207031 43.02355469 5.73179687 43.01195312 5 43 C4.67 41.35 4.34 39.7 4 38 C3.0925 38.825 2.185 39.65 1.25 40.5 C-3.02859237 43.52273024 -6.84309001 43.77661886 -11.9921875 43.55078125 C-18.30958548 42.39395902 -22.4220488 38.9016335 -26.4375 34.0625 C-29.34416898 28.36542881 -31.11468034 22.41228482 -30 16 C-27.73152065 9.63268027 -24.84144264 4.63712466 -19 1 C-12.46327104 -1.94487448 -6.7307265 -2.86501393 0 0 Z " fill="#171717" transform="translate(756,250)"/>
<path d="M0 0 C4.70454485 4.97337599 7.13220956 10.08491955 7.4375 16.875 C7.21332612 23.02110047 5.51442007 28.21745457 1.3515625 32.82421875 C-5.11413769 38.65464272 -10.94348912 39.50887817 -19.54296875 39.3828125 C-25.71459923 38.69940031 -29.09928501 35.95208566 -33.3125 31.625 C-37.54191011 25.04591761 -38.9179445 19.79624098 -38 12 C-35.86451497 5.25636306 -32.38254744 0.04050227 -26.0625 -3.3125 C-17.03841681 -7.32880518 -7.72334929 -6.43612441 0 0 Z " fill="#181818" transform="translate(450,254)"/>
<path d="M0 0 C5.27733995 4.47708758 7.49214381 9.54096624 8.5 16.3125 C8.91355618 22.71277424 7.167703 27.79520946 3.8125 33.1875 C-1.45164207 38.3054159 -6.92527221 40.53307307 -14.1875 40.625 C-15.39921875 40.65078125 -16.6109375 40.6765625 -17.859375 40.703125 C-23.68835632 40.1685896 -27.44091211 37.91684903 -31.1875 33.5 C-31.75984375 32.84257812 -32.3321875 32.18515625 -32.921875 31.5078125 C-37.35093557 25.27516541 -37.00650118 18.75335958 -36.4375 11.375 C-34.70161566 5.51639035 -30.40184599 1.73522059 -25.4375 -1.625 C-16.91426534 -5.88661733 -7.92713701 -5.36809835 0 0 Z " fill="#171717" transform="translate(198.4375,252.625)"/>
<path d="M0 0 C5.49669791 3.12145178 9.20751973 8.12649905 11.10546875 14.140625 C11.72792968 17.49283647 11.53719443 20.75661534 11.48046875 24.16015625 C8.66222683 25.56927721 6.30795593 25.27199178 3.16015625 25.2578125 C1.90332031 25.25458984 0.64648438 25.25136719 -0.6484375 25.24804688 C-1.96714844 25.23966797 -3.28585937 25.23128906 -4.64453125 25.22265625 C-5.98437336 25.21764114 -7.32421725 25.21307826 -8.6640625 25.20898438 C-11.94926331 25.19716711 -15.23437522 25.18069242 -18.51953125 25.16015625 C-16.65386637 28.78809623 -16.65386637 28.78809623 -13.51953125 31.16015625 C-7.45599537 31.72724953 -2.79845133 31.49421104 2.48046875 28.16015625 C5.04296875 30.34765625 5.04296875 30.34765625 7.48046875 33.16015625 C7.66796875 35.72265625 7.66796875 35.72265625 6.48046875 38.16015625 C-0.55193334 43.66377528 -6.86624475 43.74700059 -15.51953125 43.16015625 C-21.60585699 41.09515288 -26.09233299 36.54575352 -29.51953125 31.16015625 C-32.03372778 25.47013253 -32.51940353 19.78843531 -30.8671875 13.79296875 C-28.35014696 7.37613578 -24.47208012 3.65198054 -18.72265625 0.02734375 C-13.12158678 -2.17733253 -5.65720722 -1.88573574 0 0 Z " fill="#171717" transform="translate(292.51953125,249.83984375)"/>
<path d="M0 0 C5.94150241 3.51904421 9.26506556 8.44324808 11.265625 15.00390625 C11.61817318 18.1443683 11.52144844 20.83169561 11.265625 24.00390625 C8.44738308 25.41302721 6.09311218 25.11574178 2.9453125 25.1015625 C1.68847656 25.09833984 0.43164062 25.09511719 -0.86328125 25.09179688 C-2.18199219 25.08341797 -3.50070312 25.07503906 -4.859375 25.06640625 C-6.19921711 25.06139114 -7.539061 25.05682826 -8.87890625 25.05273438 C-12.16410706 25.04091711 -15.44921897 25.02444242 -18.734375 25.00390625 C-16.69635365 29.06414946 -16.69635365 29.06414946 -12.734375 31.00390625 C-11.23760794 31.12050223 -9.73562439 31.17889584 -8.234375 31.19140625 C-7.07421875 31.21267578 -7.07421875 31.21267578 -5.890625 31.234375 C-3.43757444 31.14052153 -3.43757444 31.14052153 -0.734375 29.00390625 C2.06802487 29.21408624 3.79997381 29.69347212 6.140625 31.25390625 C7.265625 33.00390625 7.265625 33.00390625 7.328125 35.44140625 C5.82935258 39.05609266 3.62151079 40.12461021 0.265625 42.00390625 C-5.6195822 43.96564198 -12.5017992 44.05472899 -18.4140625 42.1328125 C-24.98097435 38.76091332 -28.484795 34.3361196 -31.046875 27.50390625 C-32.39691726 20.63096384 -31.97822782 15.18788034 -28.734375 9.00390625 C-22.05696069 -0.86448481 -11.4266086 -4.16255028 0 0 Z " fill="#171717" transform="translate(657.734375,249.99609375)"/>
<path d="M0 0 C4.86788956 4.43518827 7.46623222 9.51555403 8.21411133 16.09643555 C8.30281581 19.9716969 8.24990985 23.81337283 8.125 27.6875 C8.09985769 29.03902073 8.07705508 30.39058709 8.05664062 31.7421875 C7.99816513 35.016815 7.91625192 38.28904709 7.8125 41.5625 C5.31110398 42.81319801 3.53857309 42.69552467 0.75 42.6875 C-0.59771484 42.69136719 -0.59771484 42.69136719 -1.97265625 42.6953125 C-4.1875 42.5625 -4.1875 42.5625 -5.1875 41.5625 C-5.29689177 39.68325863 -5.34336786 37.80028597 -5.36328125 35.91796875 C-5.38712891 34.76619141 -5.41097656 33.61441406 -5.43554688 32.42773438 C-5.47830719 29.98780477 -5.5096704 27.54764721 -5.52929688 25.10742188 C-5.55701172 23.95177734 -5.58472656 22.79613281 -5.61328125 21.60546875 C-5.62786377 20.54352295 -5.64244629 19.48157715 -5.6574707 18.38745117 C-6.31260958 14.89569073 -7.39766317 13.70267045 -10.1875 11.5625 C-13.23029372 10.89569632 -13.23029372 10.89569632 -16.1875 11.5625 C-19.33731102 14.71184542 -19.59251693 17.28719081 -19.69921875 21.640625 C-19.73466797 22.80078125 -19.77011719 23.9609375 -19.80664062 25.15625 C-19.84047852 26.96609375 -19.84047852 26.96609375 -19.875 28.8125 C-19.90916016 30.03453125 -19.94332031 31.2565625 -19.97851562 32.515625 C-20.06097162 35.53115846 -20.13013201 38.54640194 -20.1875 41.5625 C-22.83208379 42.88479189 -24.86511301 42.65927194 -27.8125 42.625 C-28.81539062 42.61597656 -29.81828125 42.60695313 -30.8515625 42.59765625 C-31.62242187 42.58605469 -32.39328125 42.57445312 -33.1875 42.5625 C-34.4944523 38.64164311 -34.34999715 34.89607602 -34.35546875 30.80859375 C-34.35879715 29.95193619 -34.36212555 29.09527863 -34.36555481 28.21266174 C-34.37061502 26.40292905 -34.37296341 24.59318703 -34.37280273 22.78344727 C-34.37499434 20.0071695 -34.39317342 17.23128585 -34.41210938 14.45507812 C-34.4150424 12.69791803 -34.4170278 10.94075604 -34.41796875 9.18359375 C-34.42515427 8.35025009 -34.43233978 7.51690643 -34.43974304 6.65830994 C-34.41633046 0.79133046 -34.41633046 0.79133046 -32.1875 -1.4375 C-26.95021186 -2.0194209 -26.95021186 -2.0194209 -24.1875 -1.4375 C-22.1875 1.0625 -22.1875 1.0625 -21.1875 3.5625 C-19.82625 2.3559375 -19.82625 2.3559375 -18.4375 1.125 C-12.64076293 -3.63371671 -6.68143409 -3.01319577 0 0 Z " fill="#191919" transform="translate(247.1875,250.4375)"/>
<path d="M0 0 C2.34887109 1.69010725 3.53478284 3.60267546 4.69921875 6.22265625 C2.71906313 8.11071161 0.98498368 9.76215562 -1.30078125 11.22265625 C-3.80078125 11.09765625 -3.80078125 11.09765625 -6.30078125 10.22265625 C-8.29975253 9.8832083 -10.29953764 9.54844009 -12.30078125 9.22265625 C-12.30078125 10.21265625 -12.30078125 11.20265625 -12.30078125 12.22265625 C-11.60210937 12.42761719 -10.9034375 12.63257813 -10.18359375 12.84375 C-9.27351563 13.11316406 -8.3634375 13.38257813 -7.42578125 13.66015625 C-6.52085937 13.92699219 -5.6159375 14.19382812 -4.68359375 14.46875 C-2.30078125 15.22265625 -2.30078125 15.22265625 -0.30078125 16.22265625 C-0.30078125 16.88265625 -0.30078125 17.54265625 -0.30078125 18.22265625 C0.31796875 18.30515625 0.93671875 18.38765625 1.57421875 18.47265625 C3.69921875 19.22265625 3.69921875 19.22265625 4.8046875 20.93359375 C6.64395524 25.64019155 6.84186652 31.46033301 4.89453125 36.16796875 C1.61194908 40.6730298 -3.0821942 42.14108381 -8.30078125 43.22265625 C-15.39562747 43.96948217 -20.84730615 42.17542215 -26.36328125 37.78515625 C-28.30078125 35.22265625 -28.30078125 35.22265625 -28.42578125 33.16015625 C-26.87225827 30.48464445 -24.79120383 29.01065195 -22.30078125 27.22265625 C-17.55078125 29.09765625 -17.55078125 29.09765625 -15.30078125 30.22265625 C-12.96779465 30.26288016 -10.63371459 30.26585872 -8.30078125 30.22265625 C-8.30078125 29.23265625 -8.30078125 28.24265625 -8.30078125 27.22265625 C-9.03683594 26.99191406 -9.77289063 26.76117188 -10.53125 26.5234375 C-17.22250886 24.28712509 -21.39512792 22.23522513 -25.61328125 16.41015625 C-27.18162963 11.41995685 -26.90986574 7.56771783 -24.80078125 2.91015625 C-18.08570237 -4.30855355 -8.31879312 -4.55980998 0 0 Z " fill="#1A1A1A" transform="translate(337.30078125,250.77734375)"/>
<path d="M0 0 C1.6640625 1.0703125 1.6640625 1.0703125 3.6640625 3.0703125 C3.47813357 5.85924651 2.6090042 7.14306811 0.9140625 9.3828125 C-1.3359375 11.0703125 -1.3359375 11.0703125 -3.7109375 10.8828125 C-4.5771875 10.6146875 -5.4434375 10.3465625 -6.3359375 10.0703125 C-10.31440821 9.33266582 -10.31440821 9.33266582 -14.3359375 9.0703125 C-12.0199779 12.5442519 -11.51178628 12.5131153 -7.6484375 13.3828125 C-2.49589066 14.79416229 1.18387135 16.98348252 4.6640625 21.0703125 C6.32834493 26.0631598 6.21294314 30.39138349 4.6015625 35.3203125 C1.72040638 39.40969539 -1.63950283 41.0591495 -6.3359375 42.8203125 C-12.6409269 43.60843618 -17.72629308 43.02152418 -23.3359375 40.0703125 C-26.3984375 37.6328125 -26.3984375 37.6328125 -28.3359375 35.0703125 C-28.42547423 32.11560039 -27.34544573 31.08244369 -25.5234375 28.7578125 C-23.3359375 27.0703125 -23.3359375 27.0703125 -21.2109375 27.1953125 C-19.3359375 28.0703125 -19.3359375 28.0703125 -17.3359375 30.0703125 C-15.13342758 30.53037596 -15.13342758 30.53037596 -12.7109375 30.6953125 C-11.89367187 30.77007812 -11.07640625 30.84484375 -10.234375 30.921875 C-9.60789062 30.97085938 -8.98140625 31.01984375 -8.3359375 31.0703125 C-8.3359375 29.7503125 -8.3359375 28.4303125 -8.3359375 27.0703125 C-9.22796875 26.76738281 -10.12 26.46445312 -11.0390625 26.15234375 C-12.20953125 25.73339844 -13.38 25.31445312 -14.5859375 24.8828125 C-15.74609375 24.47675781 -16.90625 24.07070313 -18.1015625 23.65234375 C-22.2368838 21.62963224 -24.29730673 19.14757404 -26.3359375 15.0703125 C-26.84194601 10.38351235 -27.00462589 6.37982725 -24.8359375 2.1328125 C-17.16076118 -4.19920797 -8.5726734 -4.61080043 0 0 Z " fill="#191919" transform="translate(121.3359375,250.9296875)"/>
<path d="M0 0 C1.60725635 3.21451269 1.05748185 6.43612536 1 10 C0.030625 10.37125 -0.93875 10.7425 -1.9375 11.125 C-5.31140969 12.71052362 -5.31140969 12.71052362 -5.875 16.1875 C-5.91625 17.115625 -5.9575 18.04375 -6 19 C-3.69 19 -1.38 19 1 19 C2.10647808 21.21295616 2.19588368 22.54672699 2.25 25 C2.27578125 25.70125 2.3015625 26.4025 2.328125 27.125 C2.21984375 27.74375 2.1115625 28.3625 2 29 C-1 31 -1 31 -6 31 C-6 39.58 -6 48.16 -6 57 C-8.50139602 58.25069801 -10.27392691 58.13302467 -13.0625 58.125 C-13.96097656 58.12757813 -14.85945312 58.13015625 -15.78515625 58.1328125 C-18 58 -18 58 -19 57 C-19.08748207 55.07332493 -19.10697334 53.14348139 -19.09765625 51.21484375 C-19.09443359 50.04501953 -19.09121094 48.87519531 -19.08789062 47.66992188 C-19.07951172 46.43822266 -19.07113281 45.20652344 -19.0625 43.9375 C-19.05798828 42.70193359 -19.05347656 41.46636719 -19.04882812 40.19335938 C-19.03699608 37.12885883 -19.02051173 34.06445279 -19 31 C-20.98 30.67 -22.96 30.34 -25 30 C-25 26.37 -25 22.74 -25 19 C-23.02 19 -21.04 19 -19 19 C-19.04640625 18.41992188 -19.0928125 17.83984375 -19.140625 17.2421875 C-19.40177695 11.59011326 -18.89495857 8.40745312 -15 4 C-9.86705892 0.04335792 -6.35510112 -1.88935439 0 0 Z " fill="#181818" transform="translate(721,235)"/>
<path d="M0 0 C0.433125 0.61875 0.86625 1.2375 1.3125 1.875 C-0.75389839 9.02791751 -0.75389839 9.02791751 -3.6875 10.875 C-5.9375 10.625 -5.9375 10.625 -8.6875 9.875 C-13.7274181 8.76439643 -13.7274181 8.76439643 -18.5625 10.125 C-20.94925558 11.77478501 -20.94925558 11.77478501 -21.6875 14.875 C-21.77975211 16.37274018 -21.8175019 17.87442974 -21.8125 19.375 C-21.81507813 20.1484375 -21.81765625 20.921875 -21.8203125 21.71875 C-21.76895813 24.05947017 -21.76895813 24.05947017 -20.6875 26.875 C-15.10594432 28.86165541 -12.26516651 29.15677266 -6.6875 26.875 C-5.3675 26.875 -4.0475 26.875 -2.6875 26.875 C0.27993313 30.50186272 1.3125 32.1203678 1.3125 36.875 C-5.77595195 41.41160925 -12.37417589 41.99894592 -20.6875 40.875 C-26.53930496 38.67832244 -30.76118503 34.66925675 -33.58984375 29.09765625 C-36.48983884 22.34881975 -36.80206576 16.06478963 -34.125 9.1875 C-31.43330704 3.72775399 -27.493803 0.31237471 -22.125 -2.4375 C-21.320625 -2.664375 -20.51625 -2.89125 -19.6875 -3.125 C-18.82125 -3.3725 -17.955 -3.62 -17.0625 -3.875 C-11.04877503 -4.32046111 -4.81748415 -3.80917352 0 0 Z " fill="#181818" transform="translate(406.6875,252.125)"/>
<path d="M0 0 C1.00496852 3.01490557 1.10335303 5.04181692 1.0625 8.1875 C1.05347656 9.08855469 1.04445312 9.98960937 1.03515625 10.91796875 C1.02355469 11.60503906 1.01195312 12.29210937 1 13 C2.423125 12.9071875 2.423125 12.9071875 3.875 12.8125 C4.90625 12.874375 5.9375 12.93625 7 13 C9.72286806 17.08430208 9.38524534 19.14590877 9 24 C5.77208445 26.1519437 4.71599191 26.20086443 1 26 C1.01571045 26.83772949 1.0314209 27.67545898 1.04760742 28.53857422 C1.09870007 31.64336877 1.13633234 34.74794931 1.16479492 37.85302734 C1.18732251 39.85919374 1.2254357 41.86516526 1.26367188 43.87109375 C1.27333984 45.12792969 1.28300781 46.38476562 1.29296875 47.6796875 C1.3086792 48.84226074 1.32438965 50.00483398 1.34057617 51.20263672 C1.22818604 52.1257666 1.1157959 53.04889648 1 54 C-2.31371 56.20914 -3.3446021 56.22481553 -7.1875 56.125 C-8.08855469 56.10695313 -8.98960937 56.08890625 -9.91796875 56.0703125 C-10.60503906 56.04710937 -11.29210937 56.02390625 -12 56 C-13.40912096 53.18175808 -13.11183553 50.82748718 -13.09765625 47.6796875 C-13.09443359 46.42285156 -13.09121094 45.16601562 -13.08789062 43.87109375 C-13.07951172 42.55238281 -13.07113281 41.23367188 -13.0625 39.875 C-13.05748489 38.53515789 -13.05292201 37.195314 -13.04882812 35.85546875 C-13.03701086 32.57026794 -13.02053617 29.28515603 -13 26 C-13.639375 25.855625 -14.27875 25.71125 -14.9375 25.5625 C-17 25 -17 25 -18 24 C-18.07205511 22.31391034 -18.08386068 20.62499341 -18.0625 18.9375 C-18.05347656 18.01839844 -18.04445312 17.09929687 -18.03515625 16.15234375 C-18.02355469 15.44207031 -18.01195312 14.73179687 -18 14 C-16.35 13.67 -14.7 13.34 -13 13 C-13 10.03 -13 7.06 -13 4 C-11.58774074 3.32404685 -10.16997095 2.65959941 -8.75 2 C-7.56664062 1.443125 -7.56664062 1.443125 -6.359375 0.875 C-4 0 -4 0 0 0 Z " fill="#1C1C1C" transform="translate(150,237)"/>
<path d="M0 0 C0 3.96 0 7.92 0 12 C1.98 12 3.96 12 6 12 C8 14 8 14 8.1953125 16.3828125 C8.17210937 17.28773438 8.14890625 18.19265625 8.125 19.125 C8.09792969 20.49011719 8.09792969 20.49011719 8.0703125 21.8828125 C8.04710937 22.58148438 8.02390625 23.28015625 8 24 C5.36 24 2.72 24 0 24 C0.01047363 24.86802246 0.02094727 25.73604492 0.03173828 26.63037109 C0.06579716 29.84699528 0.09088767 33.06352767 0.10986328 36.28027344 C0.11992877 37.67320781 0.13358234 39.06612102 0.15087891 40.45898438 C0.1751022 42.4595436 0.18540814 44.46025615 0.1953125 46.4609375 C0.20578613 47.66540527 0.21625977 48.86987305 0.22705078 50.11083984 C0 53 0 53 -2 55 C-4.3125 55.30078125 -4.3125 55.30078125 -7 55.3125 C-7.886875 55.32925781 -8.77375 55.34601563 -9.6875 55.36328125 C-10.450625 55.24339844 -11.21375 55.12351562 -12 55 C-14.36008817 51.45986775 -14.23463644 49.98878045 -14.1953125 45.80078125 C-14.18564453 43.98803711 -14.18564453 43.98803711 -14.17578125 42.13867188 C-14.15902344 40.87603516 -14.14226562 39.61339844 -14.125 38.3125 C-14.11597656 37.03826172 -14.10695313 35.76402344 -14.09765625 34.45117188 C-14.07405641 31.30059373 -14.04113194 28.15039017 -14 25 C-14.639375 24.87625 -15.27875 24.7525 -15.9375 24.625 C-16.9584375 24.315625 -16.9584375 24.315625 -18 24 C-19.60725635 20.78548731 -19.05748185 17.56387464 -19 14 C-17.35 13.34 -15.7 12.68 -14 12 C-14.0825 10.741875 -14.165 9.48375 -14.25 8.1875 C-14.23619057 4.27252758 -14.23619057 4.27252758 -12.375 2.125 C-7.71148903 -0.08403151 -5.14017313 -1.28504328 0 0 Z " fill="#1B1B1B" transform="translate(480,238)"/>
<path d="M0 0 C0 4.62 0 9.24 0 14 C2.64 14 5.28 14 8 14 C9.49297212 16.98594424 9.11755228 19.70853624 9 23 C8.67 23.66 8.34 24.32 8 25 C5.36 25 2.72 25 0 25 C0 34.9 0 44.8 0 55 C-2.50139602 56.25069801 -4.27392691 56.13302467 -7.0625 56.125 C-7.96097656 56.12757813 -8.85945313 56.13015625 -9.78515625 56.1328125 C-12 56 -12 56 -13 55 C-13.08775605 52.85441173 -13.10695219 50.70595579 -13.09765625 48.55859375 C-13.09443359 47.25341797 -13.09121094 45.94824219 -13.08789062 44.60351562 C-13.07953401 43.2148431 -13.07106905 41.82617123 -13.0625 40.4375 C-13.05748666 39.04492344 -13.05292347 37.65234519 -13.04882812 36.25976562 C-13.03699434 32.8398013 -13.0205088 29.41992156 -13 26 C-14.65 25.67 -16.3 25.34 -18 25 C-18 21.37 -18 17.74 -18 14 C-16.35 14 -14.7 14 -13 14 C-13 10.7 -13 7.4 -13 4 C-11.5975 3.34 -10.195 2.68 -8.75 2 C-7.56664062 1.443125 -7.56664062 1.443125 -6.359375 0.875 C-4 0 -4 0 0 0 Z " fill="#141414" transform="translate(509,237)"/>
<path d="M0 0 C2.15234375 0.03515625 2.15234375 0.03515625 4.0625 0.4375 C6.0625 2.9375 6.0625 2.9375 7.0625 5.4375 C7.660625 4.6125 8.25875 3.7875 8.875 2.9375 C11.54857549 0.26392451 13.77236277 -0.03514425 17.5 -0.1875 C22.9939207 0.03522651 25.3786965 1.45500973 29.0625 5.4375 C28.54005558 9.19909981 27.8397785 11.75941002 25.0625 14.4375 C22.19546287 14.87858263 20.62976421 14.73885911 18.0625 13.375 C15.34015045 12.09889865 13.86709713 12.47803256 11.0625 13.4375 C8.73797376 16.92428936 8.76476266 18.50717571 8.6484375 22.63671875 C8.59042969 24.44946289 8.59042969 24.44946289 8.53125 26.29882812 C8.48484375 28.1927832 8.48484375 28.1927832 8.4375 30.125 C8.37949219 32.03635742 8.37949219 32.03635742 8.3203125 33.98632812 C8.22592314 37.13657292 8.1403417 40.28680991 8.0625 43.4375 C5.59433586 44.67158207 3.81588799 44.63947579 1.0625 44.6875 C0.175625 44.71328125 -0.71125 44.7390625 -1.625 44.765625 C-2.388125 44.65734375 -3.15125 44.5490625 -3.9375 44.4375 C-6.54320381 40.52894429 -6.22520167 37.21686262 -6.203125 32.68359375 C-6.20503845 31.82693619 -6.2069519 30.97027863 -6.20892334 30.08766174 C-6.21028373 28.27792059 -6.20659747 26.46816964 -6.19824219 24.65844727 C-6.18752741 21.88210251 -6.19814904 19.1064029 -6.2109375 16.33007812 C-6.20961614 14.57291523 -6.20705422 12.81575274 -6.203125 11.05859375 C-6.20717346 10.22525009 -6.21122192 9.39190643 -6.21539307 8.53330994 C-6.15120432 0.68346715 -6.15120432 0.68346715 0 0 Z " fill="#1D1D1D" transform="translate(785.9375,248.5625)"/>
<path d="M0 0 C2.8125 2.5 2.8125 2.5 5 5 C5.33 5.33 5.66 5.66 6 6 C6.40965323 10.178463 6.23455138 12.53958434 4.3125 16.3125 C1.8538694 19.16982745 0.65454168 20.21688392 -3 21 C-6.7113594 20.84851594 -8.44862765 20.46196061 -11.3125 18.0625 C-14.44617592 14.23245166 -14.35241869 10.79098916 -14 6 C-13.10718667 2.69659069 -12.15459249 2.10189051 -9.25 0.1875 C-5.46726177 -1.19465435 -3.79944684 -1.29342871 0 0 Z " fill="#F8F8F8" transform="translate(753,261)"/>
<path d="M0 0 C3.375 2 3.375 2 6 5 C7.08421882 9.53400596 6.62492628 12.91216536 4.3125 16.9375 C0.89688681 19.98385771 -1.41021993 21 -6 21 C-10.19256285 19.60247905 -11.66418128 17.70982973 -14 14 C-14.70320446 9.62450559 -14.32267751 7.61078243 -12.25 3.6875 C-8.38532025 -0.92864526 -5.86115744 -1.75834723 0 0 Z " fill="#F8F8F8" transform="translate(547,261)"/>
<path d="M0 0 C3.4375 2 3.4375 2 6 5 C6.74645591 8.14537148 6.68546469 10.84686241 6 14 C4.20606332 16.87029869 3.01736724 18.49131638 0 20 C-7.08958838 20.5811138 -7.08958838 20.5811138 -10.9375 18.125 C-13.65651641 15.32358915 -13.97827969 14.58644848 -14.125 10.625 C-13.92838196 4.92307692 -13.92838196 4.92307692 -13 3 C-8.52235367 -0.9445932 -5.72609824 -1.73827982 0 0 Z " fill="#F9F9F9" transform="translate(601,261)"/>
<path d="M0 0 C3.61442725 3.13884472 4.79934245 6.34852824 5.16015625 11.00390625 C4.8748611 14.55965794 3.3738311 16.44356651 1 19 C-2.848692 21.13816222 -4.416236 21.15830888 -8.6875 20 C-12.57176741 17.65478194 -13.67288299 16.31313028 -15 12 C-14.75485176 8.38406352 -14.14329929 5.42989787 -13 2 C-8.41437314 -1.05708458 -5.29296668 -1.56828642 0 0 Z " fill="#F6F6F6" transform="translate(189,261)"/>
<path d="M0 0 C3.8356439 2.9464719 5.78860664 5.79505785 6.625 10.5625 C5.8744217 14.69068066 4.77833253 16.8560974 2 20 C-0.8125 21.5625 -0.8125 21.5625 -4 22 C-8.38423967 20.61165744 -10.42670983 19.85993526 -13 16 C-13.61414419 11.74087013 -13.43727155 8.02758813 -11.75 4.0625 C-8.43182907 0.15179855 -5.08578889 -0.915442 0 0 Z " fill="#F8F8F8" transform="translate(438,260)"/>
<path d="M0 0 C0 0.66 0 1.32 0 2 C1.32 2.66 2.64 3.32 4 4 C4 4.66 4 5.32 4 6 C-1.28 6 -6.56 6 -12 6 C-8.91032455 -0.17935091 -6.52232324 -0.24612541 0 0 Z " fill="#F2F2F2" transform="translate(652,259)"/>
<path d="M0 0 C2.875 1.875 2.875 1.875 5 4 C5 4.66 5 5.32 5 6 C-0.28 6 -5.56 6 -11 6 C-8.23723556 0.47447111 -6.0251598 -0.72301918 0 0 Z " fill="#F3F3F3" transform="translate(286,259)"/>
</svg>
